<svg xmlns="http://www.w3.org/2000/svg" viewBox="0 0 11.1 12.29"><defs><style>.cls-1{fill:#e1e1e1;}</style></defs><title>Events_Nav_Icon</title><g id="Layer_2" data-name="Layer 2"><g id="Layer_1-2" data-name="Layer 1"><path class="cls-1" d="M9.68,12.29H1.43A1.41,1.41,0,0,1,1,12.21a1.39,1.39,0,0,1-.91-1,1.07,1.07,0,0,1,0-.14V2.57a1.32,1.32,0,0,1,.25-.78,1.37,1.37,0,0,1,1.14-.6h.37V0H3.42V1.18H7.68V0H9.33V1.18h.35a1.36,1.36,0,0,1,.29,0,1.4,1.4,0,0,1,1.09,1,1.35,1.35,0,0,1,0,.15V11l0,.13a1.21,1.21,0,0,1,0,.18,1.42,1.42,0,0,1-1.35,1m-5.51-.46H9.68a1,1,0,0,0,.91-.66,1,1,0,0,0,0-.12l0-.09V2.47s0-.07,0-.11a.93.93,0,0,0-.75-.7l-.2,0H8.91l0-.23v-1H8.14v1l0,.22H3V.46H2.23V1.6L2,1.64h-.6a.91.91,0,0,0-.77.41.88.88,0,0,0-.17.51V4.65s0,.06,0,.1V11l0,.09a.95.95,0,0,0,.94.73Zm5.74-.73H1.19v-7H9.92Zm-8.27-.46H9.46v-6H1.65Z"/></g></g></svg>