<svg xmlns="http://www.w3.org/2000/svg" viewBox="0 0 9.79 11.92"><defs><style>.cls-1{fill:#e1e1e1;}</style></defs><title>Feed_Nav_Icon</title><g id="Layer_2" data-name="Layer 2"><g id="Layer_1-2" data-name="Layer 1"><path class="cls-1" d="M9.08,11.92H.72A.72.72,0,0,1,0,11.2V.71A.72.72,0,0,1,.72,0H9.08a.71.71,0,0,1,.71.71V11.2a.71.71,0,0,1-.71.71M.72.46A.25.25,0,0,0,.46.71V11.2a.25.25,0,0,0,.26.25H9.08a.25.25,0,0,0,.25-.25V.71A.25.25,0,0,0,9.08.46Z"/><path class="cls-1" d="M8.66,3.6H1.13V2.14H8.66ZM1.59,3.14H8.2V2.6H1.59Z"/><path class="cls-1" d="M8.66,5.66H1.13V4.19H8.66ZM1.59,5.2H8.2V4.65H1.59Z"/><path class="cls-1" d="M8.66,7.72H1.13V6.25H8.66ZM1.59,7.26H8.2V6.71H1.59Z"/><path class="cls-1" d="M8.66,9.78H1.13V8.32H8.66ZM1.59,9.32H8.2V8.78H1.59Z"/></g></g></svg>