<svg xmlns="http://www.w3.org/2000/svg" viewBox="0 0 14.79 11.62"><defs><style>.cls-1{fill:#e1e1e1;}</style></defs><title>Groups_Nav_Icon</title><g id="Layer_2" data-name="Layer 2"><g id="Layer_1-2" data-name="Layer 1"><path class="cls-1" d="M11,11.62H3.81v-4a1.71,1.71,0,0,1,.44-1.17,1.67,1.67,0,0,1,1-.56l.3,0H9.44a1.71,1.71,0,0,1,1.49.81,1.65,1.65,0,0,1,.26.78v4.11Zm-6.69-.46h6.46V7.54A1.27,1.27,0,0,0,9.44,6.33H5.57l-.23,0a1.22,1.22,0,0,0-.75.41,1.25,1.25,0,0,0-.32.87Z"/><path class="cls-1" d="M3.07,3.36A1.62,1.62,0,0,1,2,2.91a1.61,1.61,0,0,1-.53-1,1.68,1.68,0,0,1,1-1.8A1.62,1.62,0,0,1,3,0h.21l.17,0A1.66,1.66,0,0,1,4.49.76a1.63,1.63,0,0,1,.27,1,1.63,1.63,0,0,1-.45,1.05,1.62,1.62,0,0,1-.89.5,1.92,1.92,0,0,1-.36,0M3,.46a1.25,1.25,0,0,0-.4.1,1.21,1.21,0,0,0-.72,1.3,1.16,1.16,0,0,0,.38.71,1.19,1.19,0,0,0,1.07.3A1.18,1.18,0,0,0,4,2.51a1.17,1.17,0,0,0,.32-.77A1.17,1.17,0,0,0,4.1,1,1.2,1.2,0,0,0,3.28.47Z"/><path class="cls-1" d="M11.57,3.36a1.62,1.62,0,0,1-.88-.26,1.64,1.64,0,0,1-.73-1A1.68,1.68,0,0,1,11.24,0l.16,0h.3l0,.23L11.75,0h.11a1.65,1.65,0,0,1,1,.54,1.59,1.59,0,0,1,.41.86,1.64,1.64,0,0,1-.54,1.52,1.61,1.61,0,0,1-.78.39,1.77,1.77,0,0,1-.34,0M11.51.46h-.06l-.12,0A1.22,1.22,0,0,0,10.41,2a1.18,1.18,0,0,0,.53.72,1.17,1.17,0,0,0,.89.16,1.15,1.15,0,0,0,.56-.28,1.19,1.19,0,0,0,.4-1.11A1.14,1.14,0,0,0,12.5.87a1.2,1.2,0,0,0-.72-.39Z"/><path class="cls-1" d="M3,8.45H0V7.37C0,6.57,0,5.76,0,5a1.5,1.5,0,0,1,.87-1.4,1.4,1.4,0,0,1,.65-.15H4.84l0,.23a2.12,2.12,0,0,0,.87,1.74l.53.41H4.64a1.47,1.47,0,0,0-1.07.46,1.16,1.16,0,0,0-.33.68,1,1,0,0,0,0,.14V8.4ZM.46,8H2.78V7.07a1.66,1.66,0,0,1,0-.2,1.61,1.61,0,0,1,.45-.94,1.94,1.94,0,0,1,1.39-.6H5a2.54,2.54,0,0,1-.6-1.46H1.53a1,1,0,0,0-.44.1A1,1,0,0,0,.47,5c0,.81,0,1.61,0,2.42Z"/><path class="cls-1" d="M14.56,8.45H11.7V7.83c0-.23,0-.47,0-.7A1.23,1.23,0,0,0,11,6a1.43,1.43,0,0,0-.67-.21H8.9l.49-.41a2.12,2.12,0,0,0,.87-1.75V3.4h3a1.54,1.54,0,0,1,1.49,1.27,1.63,1.63,0,0,1,0,.29V8.41ZM12.16,8h2.17V5a1.33,1.33,0,0,0,0-.21,1.08,1.08,0,0,0-1-.89H10.71a2.53,2.53,0,0,1-.61,1.47h.31a1.89,1.89,0,0,1,.88.27,1.68,1.68,0,0,1,.87,1.52c0,.23,0,.46,0,.7Z"/><path class="cls-1" d="M7.57,6h0A2.16,2.16,0,0,1,5.41,3.86,2.14,2.14,0,0,1,6,2.33,2.16,2.16,0,0,1,9.73,3.86h0A2.16,2.16,0,0,1,7.57,6m0-3.86a1.7,1.7,0,0,0-1.7,1.7,1.7,1.7,0,0,0,1.68,1.7h0a1.7,1.7,0,0,0,1.7-1.7,1.71,1.71,0,0,0-1.68-1.7Z"/></g></g></svg>