<svg xmlns="http://www.w3.org/2000/svg" viewBox="0 0 11.19 12.24"><defs><style>.cls-1{fill:#e1e1e1;}</style></defs><title>Home_Nav_Icon</title><g id="Layer_2" data-name="Layer 2"><g id="Layer_1-2" data-name="Layer 1"><path class="cls-1" d="M9.1,12.24H7.74A.64.64,0,0,1,7,11.51v-.9c0-1,0-2.08,0-3.12H4.15v3.94c0,.09,0,.14,0,.18a.62.62,0,0,1-.65.61H.64A.59.59,0,0,1,0,11.66a1.59,1.59,0,0,1,0-.21V9.74q0-2.52,0-5a.91.91,0,0,1,.36-.77L3.31,1.58l.18-.14L5,.23a.7.7,0,0,1,1,0L7.59,1.45,10.95,4a.74.74,0,0,1,.25.63v5.94q0,.45,0,.9a.64.64,0,0,1-.72.72H9.1M7,7a.4.4,0,0,1,.45.46c0,1,0,2.09,0,3.13v.9c0,.23,0,.27.26.27h2.72c.23,0,.26,0,.26-.26s0-.6,0-.9V4.67c0-.16,0-.23-.07-.27L7.31,1.81,5.72.58c-.21-.17-.25-.16-.46,0L3.77,1.79l-.18.14-3,2.36a.45.45,0,0,0-.18.41q0,2.52,0,5v1.68a1.59,1.59,0,0,0,0,.18c0,.15.06.17.18.17H3.49c.12,0,.18,0,.19-.19a.85.85,0,0,0,0-.09V7H7Z"/></g></g></svg>