<?xml version="1.0" encoding="utf-8"?>
<!-- Generator: Adobe Illustrator 20.1.0, SVG Export Plug-In . SVG Version: 6.00 Build 0)  -->
<svg version="1.1" id="Layer_1" xmlns="http://www.w3.org/2000/svg" xmlns:xlink="http://www.w3.org/1999/xlink" x="0px" y="0px"
	 viewBox="0 0 448.2 136.4" style="enable-background:new 0 0 448.2 136.4;" xml:space="preserve">
<style type="text/css">
	.st0{fill:#FFFFFF;}
</style>
<title>Golf_CNX_Logo_02</title>
<g id="Layer_2">
	<g id="Layer_1-2">
		<path class="st0" d="M161,14.8h-8.2c0.5-3.2-1.7-6.2-4.9-6.7c-0.6-0.1-1.2-0.1-1.8,0h-21.6c-4.9,0-6.7,2-6.8,6.7V42
			c0,4.6,2,6.7,6.8,6.7h21.6c4.6,0,6.7-2.1,6.7-6.7v-9.3h-17.6v-8.2h25.7v18.1c-0.3,8-6.8,14.4-14.8,14.5h-21.6
			c-8.2,0-14.9-6.7-15-14.9V15.1l0,0c0-8.3,6.7-15,15-15.1h21.6C154.2,0.1,160.8,6.7,161,14.8"/>
		<path class="st0" d="M174,14.8L174,14.8C174.2,6.6,180.9,0,189.1,0h21.5c8.2-0.1,14.8,6.5,14.9,14.7c0,0,0,0.1,0,0.1V42
			c0.1,8.3-6.5,15-14.8,15.1c0,0-0.1,0-0.1,0H189c-8.2,0-14.9-6.7-15-14.9V14.8z M182.2,14.8V42c0,4.6,2,6.7,6.8,6.7h21.7
			c4.9,0,6.7-2,6.7-6.7V14.8c0-4.7-1.8-6.7-6.7-6.7h-21.6C184.2,8.1,182.3,10.1,182.2,14.8"/>
		<polygon class="st0" points="238.5,4.1 238.5,0 246.6,0 246.6,4.1 246.6,49 276.3,49 280.4,49 280.4,57.1 276.3,57.1 242.6,57.1 
			238.5,57.1 238.5,53 		"/>
		<polygon class="st0" points="334.6,0 338.7,0 338.7,8.2 334.6,8.2 301.6,8.2 301.6,24.5 323.7,24.5 327.8,24.5 327.8,32.6 
			323.7,32.6 301.6,32.6 301.6,53 301.6,57.1 293.4,57.1 293.4,53 293.4,32.6 293.4,24.5 293.4,4.1 293.4,0 297.5,0 		"/>
		<path class="st0" d="M46,97.8v1.9h-4.4v-2.2c0.3-4.1-2.8-7.8-6.9-8.1c-0.4,0-0.8,0-1.2,0H12.6c-4-0.5-7.7,2.3-8.2,6.3
			c-0.1,0.6-0.1,1.2,0,1.7v26.1c-0.4,4.1,2.5,7.7,6.6,8.2c0.5,0.1,1.1,0.1,1.6,0h20.8c4.1,0.4,7.7-2.5,8.2-6.6c0.1-0.5,0.1-1,0-1.5
			v-2.2h4.4v2.2c0,6.9-5.7,12.4-12.5,12.3c0,0,0,0,0,0H12.6C5.8,136.1,0.2,130.7,0,124V97.8C-0.1,91,5.3,85.4,12.1,85.3
			c0.2,0,0.3,0,0.5,0h20.8C40.2,85.3,45.8,90.9,46,97.8"/>
		<path class="st0" d="M57.6,97.8C57.5,91,63,85.5,69.8,85.4c0.2,0,0.3,0,0.5,0h20.4c6.9,0,12.5,5.5,12.5,12.4V124
			c-0.2,6.8-5.8,12.1-12.5,12.1H70.3c-6.9,0.1-12.5-5.4-12.6-12.2c0-0.1,0-0.2,0-0.3L57.6,97.8z M61.9,97.8V124
			c-0.4,4.1,2.5,7.7,6.6,8.2c0.5,0.1,1.1,0.1,1.6,0h20.5c4.1,0.4,7.7-2.5,8.2-6.6c0.1-0.5,0.1-1,0-1.5V97.8c0.3-4.1-2.8-7.8-6.9-8.1
			c-0.4,0-0.8,0-1.2,0H70.3c-4-0.5-7.7,2.3-8.2,6.3C62,96.7,62,97.3,61.9,97.8"/>
		<polygon class="st0" points="119.6,134.2 119.6,136.4 115.2,136.4 115.2,134.2 115.2,87.5 115.2,85.3 118.4,85.3 119.1,86.1 
			156.9,128.5 156.9,87.5 156.9,85.3 161.2,85.3 161.2,87.5 161.2,134.2 161.2,136.4 158,136.4 157.4,135.7 119.6,93.3 		"/>
		<polygon class="st0" points="177.3,134.2 177.3,136.4 172.9,136.4 172.9,134.2 172.9,87.5 172.9,85.3 176,85.3 176.6,86.1 
			214.4,128.5 214.4,87.5 214.4,85.3 218.8,85.3 218.8,87.5 218.8,134.2 218.8,136.4 215.7,136.4 215.1,135.7 177.3,93.3 		"/>
		<polygon class="st0" points="274.3,85.3 276.5,85.3 276.5,89.7 274.3,89.7 234.9,89.7 234.9,108.7 264,108.7 266.1,108.7 
			266.1,113.1 264,113.1 234.9,113.1 234.9,132 274.3,132 276.5,132 276.5,136.4 274.3,136.4 232.7,136.4 230.5,136.4 230.5,134.2 
			230.5,113.1 230.5,108.7 230.5,87.6 230.5,85.3 232.7,85.3 		"/>
		<path class="st0" d="M334.1,97.8v1.9h-4.4v-2.2c0.3-4.1-2.8-7.8-6.9-8.1c-0.4,0-0.8,0-1.2,0h-20.9c-4.1-0.5-7.8,2.5-8.2,6.5
			c-0.1,0.5-0.1,1,0,1.5v26.1c-0.4,4.1,2.5,7.7,6.6,8.2c0.5,0.1,1.1,0.1,1.6,0h20.8c4.1,0.4,7.7-2.5,8.2-6.6c0.1-0.5,0.1-1,0-1.5
			v-2.2h4.4v2.2c0,6.9-5.7,12.4-12.5,12.3c0,0,0,0,0,0h-20.8c-6.9,0.1-12.6-5.5-12.6-12.4c0,0,0-0.1,0-0.1V97.8
			c-0.1-6.8,5.4-12.4,12.2-12.4c0.1,0,0.2,0,0.4,0h20.8C328.4,85.4,334.1,90.9,334.1,97.8C334.1,97.8,334.1,97.8,334.1,97.8"/>
		<polygon class="st0" points="365.9,85.3 384.5,85.3 386.6,85.3 386.6,89.7 384.5,89.7 365.9,89.7 365.9,134.2 365.9,136.4 
			361.4,136.4 361.4,134.2 361.4,89.7 342.8,89.7 340.7,89.7 340.7,85.3 342.8,85.3 361.4,85.3 		"/>
		<polygon class="st0" points="419.1,103.1 433.2,87.1 434.6,85.3 448.2,85.3 440.9,93.8 425.9,110.9 440.9,127.9 448.2,136.4 
			434.6,136.4 433.2,134.7 419.1,118.7 405.1,134.7 403.6,136.4 390,136.4 397.4,127.9 412.3,110.9 397.4,93.8 390,85.3 403.6,85.3 
			405.1,87.1 		"/>
	</g>
</g>
</svg>
